<?xml version="1.0" encoding="UTF-8"?>
<svg id="Layer_2" data-name="Layer 2" xmlns="http://www.w3.org/2000/svg" viewBox="0 0 260.78 136.7">
  <defs>
    <style>
      .cls-1 {
        letter-spacing: -.02em;
      }

      .cls-2 {
        letter-spacing: -.02em;
      }

      .cls-3 {
        letter-spacing: -.02em;
      }

      .cls-4 {
        letter-spacing: -.03em;
      }

      .cls-5 {
        letter-spacing: -.03em;
      }

      .cls-6 {
        fill: #0d88ff;
      }

      .cls-7 {
        letter-spacing: 0em;
      }

      .cls-8 {
        font-family: Gilroy-Regular, Gilroy;
        font-size: 19.26px;
      }

      .cls-9 {
        letter-spacing: -.02em;
      }

      .cls-10 {
        letter-spacing: 0em;
      }

      .cls-11 {
        font-family: Gilroy-Bold, Gilroy;
        font-size: 44.29px;
        font-weight: 700;
      }

      .cls-12 {
        letter-spacing: -.01em;
      }

      .cls-13 {
        letter-spacing: 0em;
      }

      .cls-14 {
        letter-spacing: 0em;
      }

      .cls-15 {
        letter-spacing: 0em;
      }

      .cls-16 {
        letter-spacing: 0em;
      }

      .cls-17 {
        letter-spacing: -.01em;
      }
    </style>
  </defs>
  <g id="Layer_1-2" data-name="Layer 1">
    <g>
      <text class="cls-8" transform="translate(104.49 104.42)">
        <tspan x="0" y="0">Physiotherapist &amp;</tspan>
        <tspan x="0" y="22.79">Fitness Coach</tspan>
      </text>
      <text class="cls-11" transform="translate(104.49 37.64) scale(1.08 1)">
        <tspan class="cls-12" x="0" y="0">R</tspan><tspan class="cls-10" x="29" y="0">us</tspan><tspan x="69" y="0">u </tspan>
        <tspan class="cls-17" x="0" y="37">Ș</tspan><tspan x="22" y="37">t</tspan><tspan x="36" y="37">ef<tspan x="69" y="37">an</tspan>
      </text>
      <g>
        <circle class="cls-6" cx="45.41" cy="31.86" r="12.54" transform="translate(-8.74 19.8) rotate(-22.5)"/>
        <path class="cls-6" d="M47.02,66.92c-1.72,0-3.46-.11-5.22-.35-.95-.13-23.43-3.38-31.17-22.31-1.9-4.65-2.68-9.69-2.33-14.98l12.22,.82c-.23,3.42,.26,6.62,1.44,9.53,5.05,12.36,21.33,14.78,21.49,14.81,14.35,1.95,27.14-8.05,32.95-18.18,6.43-11.19,4.71-22.92,3.68-27.44l11.94-2.73c1.36,5.93,3.59,21.33-5,36.28-7.1,12.37-22.26,24.57-40,24.57Z"/>
        <path class="cls-6" d="M1.27,136.7c-1.32-5.79-3.5-20.81,4.88-35.39,7.6-13.24,24.66-26.27,44.14-23.63,.93,.13,22.89,3.32,30.44,21.79,1.86,4.54,2.62,9.47,2.27,14.64l-12.22-.82c.22-3.29-.25-6.39-1.39-9.19-4.88-11.92-20.61-14.27-20.76-14.29-13.87-1.89-26.24,7.8-31.86,17.59-6.22,10.83-4.56,22.18-3.56,26.56l-11.94,2.73Z"/>
      </g>
    </g>
  </g>
</svg>